<?xml version="1.0" encoding="UTF-8"?>
<svg width="1407px" height="60px" version="1.1" xmlns="http://www.w3.org/2000/svg" xmlns:xlink="http://www.w3.org/1999/xlink">
  <g id="waveforms" fill="#92ce00" fill-rule="nonzero">
    <rect id="Rectangle"    x="0"     y="27.5" width="4" height="5px"  rx="2"></rect> <!-- 0 -->
    <rect id="Rectangle"    x="7"     y="27.5" width="4" height="5px"  rx="2"></rect> <!-- 0 -->
    <rect id="Rectangle"    x="14"    y="18.5" width="4" height="23px" rx="2"></rect> <!-- 3 -->
    <rect id="Rectangle"    x="21"    y="12.5" width="4" height="35px" rx="2"></rect> <!-- 5 -->
    <rect id="Rectangle"    x="28"    y="21.5" width="4" height="17px" rx="2"></rect> <!-- 2 -->
    <rect id="Rectangle"    x="35"    y="6.5"  width="4" height="47px" rx="2"></rect> <!-- 7 -->
    <rect id="Rectangle"    x="42"    y="3.5"  width="4" height="53px" rx="2"></rect> <!-- 8 -->
    <rect id="Rectangle"    x="49"    y="15.5" width="4" height="29px" rx="2"></rect> <!-- 4 -->
    <rect id="Rectangle"    x="56"    y="18.5" width="4" height="23px" rx="2"></rect> <!-- 3 -->
    <rect id="Rectangle"    x="63"    y="21.5" width="4" height="17px" rx="2"></rect> <!-- 2 -->
    <rect id="Rectangle"    x="70"    y="27.5" width="4" height="5px"  rx="2"></rect> <!-- 0 -->
    <rect id="Rectangle"    x="77"    y="24.5" width="4" height="11px" rx="2"></rect> <!-- 1 -->
    <rect id="Rectangle"    x="84"    y="9.5"  width="4" height="41px" rx="2"></rect> <!-- 6 -->
    <rect id="Rectangle"    x="91"    y=".5"   width="4" height="59px" rx="2"></rect> <!-- 9 -->
    <rect id="Rectangle"    x="98"    y="3.5"  width="4" height="53px" rx="2"></rect> <!-- 8 -->
    <rect id="Rectangle"    x="105"   y="15.5" width="4" height="29px" rx="2"></rect> <!-- 4 -->
    <rect id="Rectangle"    x="112"   y="15.5" width="4" height="29px" rx="2"></rect> <!-- 4 -->
    <rect id="Rectangle"    x="119"   y="18.5" width="4" height="23px" rx="2"></rect> <!-- 3 -->
    <rect id="Rectangle"    x="126"   y="6.5"  width="4" height="47px" rx="2"></rect> <!-- 7 -->
    <rect id="Rectangle"    x="133"   y="9.5"  width="4" height="41px" rx="2"></rect> <!-- 6 -->
    <rect id="Rectangle"    x="140"   y="6.5"  width="4" height="47px" rx="2"></rect> <!-- 7 -->
    <rect id="Rectangle"    x="147"   y="24.5" width="4" height="11px" rx="2"></rect> <!-- 1 -->
    <rect id="Rectangle"    x="154"   y="18.5" width="4" height="23px" rx="2"></rect> <!-- 3 -->
    <rect id="Rectangle"    x="161"   y="27.5" width="4" height="5px"  rx="2"></rect> <!-- 0 -->
    <rect id="Rectangle"    x="168"   y="12.5" width="4" height="35px" rx="2"></rect> <!-- 5 -->
    <rect id="Rectangle"    x="175"   y="6.5"  width="4" height="47px" rx="2"></rect> <!-- 7 -->
    <rect id="Rectangle"    x="182"   y="9.5"  width="4" height="41px" rx="2"></rect> <!-- 6 -->
    <rect id="Rectangle"    x="189"   y="12.5" width="4" height="35px" rx="2"></rect> <!-- 5 -->
    <rect id="Rectangle"    x="196"   y="9.5"  width="4" height="41px" rx="2"></rect> <!-- 6 -->
    <rect id="Rectangle"    x="203"   y="9.5"  width="4" height="41px" rx="2"></rect> <!-- 6 -->
    <rect id="Rectangle"    x="210"   y="24.5" width="4" height="11px" rx="2"></rect> <!-- 1 -->
    <rect id="Rectangle"    x="217"   y="12.5" width="4" height="35px" rx="2"></rect> <!-- 5 -->
    <rect id="Rectangle"    x="224"   y=".5"   width="4" height="59px" rx="2"></rect> <!-- 9 -->
    <rect id="Rectangle"    x="231"   y="6.5"  width="4" height="47px" rx="2"></rect> <!-- 7 -->
    <rect id="Rectangle"    x="238"   y="21.5" width="4" height="17px" rx="2"></rect> <!-- 2 -->
    <rect id="Rectangle"    x="245"   y="18.5" width="4" height="23px" rx="2"></rect> <!-- 3 -->
    <rect id="Rectangle"    x="252"   y="12.5" width="4" height="35px" rx="2"></rect> <!-- 5 -->
    <rect id="Rectangle"    x="259"   y="18.5" width="4" height="23px" rx="2"></rect> <!-- 3 -->
    <rect id="Rectangle"    x="266"   y="9.5"  width="4" height="41px" rx="2"></rect> <!-- 6 -->
    <rect id="Rectangle"    x="273"   y="9.5"  width="4" height="41px" rx="2"></rect> <!-- 6 -->
    <rect id="Rectangle"    x="280"   y="12.5" width="4" height="35px" rx="2"></rect> <!-- 5 -->
    <rect id="Rectangle"    x="287"   y="27.5" width="4" height="5px"  rx="2"></rect> <!-- 0 -->
    <rect id="Rectangle"    x="294"   y="6.5"  width="4" height="47px" rx="2"></rect> <!-- 7 -->
    <rect id="Rectangle"    x="301"   y="12.5" width="4" height="35px" rx="2"></rect> <!-- 5 -->
    <rect id="Rectangle"    x="308"   y="3.5"  width="4" height="53px" rx="2"></rect> <!-- 8 -->
    <rect id="Rectangle"    x="315"   y="3.5"  width="4" height="53px" rx="2"></rect> <!-- 8 -->
    <rect id="Rectangle"    x="322"   y=".5"   width="4" height="59px" rx="2"></rect> <!-- 9 -->
    <rect id="Rectangle"    x="329"   y="21.5" width="4" height="17px" rx="2"></rect> <!-- 2 -->
    <rect id="Rectangle"    x="336"   y="24.5" width="4" height="11px" rx="2"></rect> <!-- 1 -->
    <rect id="Rectangle"    x="343"   y="15.5" width="4" height="29px" rx="2"></rect> <!-- 4 -->
    <rect id="Rectangle"    x="350"   y="15.5" width="4" height="29px" rx="2"></rect> <!-- 4 -->
    <rect id="Rectangle"    x="357"   y="18.5" width="4" height="23px" rx="2"></rect> <!-- 3 -->
    <rect id="Rectangle"    x="364"   y="9.5"  width="4" height="41px" rx="2"></rect> <!-- 6 -->
    <rect id="Rectangle"    x="371"   y=".5"   width="4" height="59px" rx="2"></rect> <!-- 9 -->
    <rect id="Rectangle"    x="378"   y="12.5" width="4" height="35px" rx="2"></rect> <!-- 5 -->
    <rect id="Rectangle"    x="385"   y="6.5"  width="4" height="47px" rx="2"></rect> <!-- 7 -->
    <rect id="Rectangle"    x="392"   y="3.5"  width="4" height="53px" rx="2"></rect> <!-- 8 -->
    <rect id="Rectangle"    x="399"   y="6.5"  width="4" height="47px" rx="2"></rect> <!-- 7 -->
    <rect id="Rectangle"    x="406"   y="3.5"  width="4" height="53px" rx="2"></rect> <!-- 8 -->
    <rect id="Rectangle"    x="413"   y="27.5" width="4" height="5px"  rx="2"></rect> <!-- 0 -->
    <rect id="Rectangle"    x="420"   y="15.5" width="4" height="29px" rx="2"></rect> <!-- 4 -->
    <rect id="Rectangle"    x="427"   y="9.5"  width="4" height="41px" rx="2"></rect> <!-- 6 -->
    <rect id="Rectangle"    x="434"   y="21.5" width="4" height="17px" rx="2"></rect> <!-- 2 -->
    <rect id="Rectangle"    x="441"   y="12.5" width="4" height="35px" rx="2"></rect> <!-- 5 -->
    <rect id="Rectangle"    x="448"   y="15.5" width="4" height="29px" rx="2"></rect> <!-- 4 -->
    <rect id="Rectangle"    x="455"   y=".5"   width="4" height="59px" rx="2"></rect> <!-- 9 -->
    <rect id="Rectangle"    x="462"   y="9.5"  width="4" height="41px" rx="2"></rect> <!-- 6 -->
    <rect id="Rectangle"    x="469"   y=".5"   width="4" height="59px" rx="2"></rect> <!-- 9 -->
    <rect id="Rectangle"    x="476"   y=".5"   width="4" height="59px" rx="2"></rect> <!-- 9 -->
    <rect id="Rectangle"    x="483"   y="6.5"  width="4" height="47px" rx="2"></rect> <!-- 7 -->
    <rect id="Rectangle"    x="490"   y="3.5"  width="4" height="53px" rx="2"></rect> <!-- 8 -->
    <rect id="Rectangle"    x="497"   y="21.5" width="4" height="17px" rx="2"></rect> <!-- 2 -->
    <rect id="Rectangle"    x="504"   y=".5"   width="4" height="59px" rx="2"></rect> <!-- 9 -->
    <rect id="Rectangle"    x="511"   y="18.5" width="4" height="23px" rx="2"></rect> <!-- 3 -->
    <rect id="Rectangle"    x="518"   y=".5"   width="4" height="59px" rx="2"></rect> <!-- 9 -->
    <rect id="Rectangle"    x="525"   y="3.5"  width="4" height="53px" rx="2"></rect> <!-- 8 -->
    <rect id="Rectangle"    x="532"   y="12.5" width="4" height="35px" rx="2"></rect> <!-- 5 -->
    <rect id="Rectangle"    x="539"   y="6.5"  width="4" height="47px" rx="2"></rect> <!-- 7 -->
    <rect id="Rectangle"    x="546"   y=".5"   width="4" height="59px" rx="2"></rect> <!-- 9 -->
    <rect id="Rectangle"    x="553"   y="12.5" width="4" height="35px" rx="2"></rect> <!-- 5 -->
    <rect id="Rectangle"    x="560"   y=".5"   width="4" height="59px" rx="2"></rect> <!-- 9 -->
    <rect id="Rectangle"    x="567"   y="15.5" width="4" height="29px" rx="2"></rect> <!-- 4 -->
    <rect id="Rectangle"    x="574"   y="9.5"  width="4" height="41px" rx="2"></rect> <!-- 6 -->
    <rect id="Rectangle"    x="581"   y="9.5"  width="4" height="41px" rx="2"></rect> <!-- 6 -->
    <rect id="Rectangle"    x="588"   y=".5"   width="4" height="59px" rx="2"></rect> <!-- 9 -->
    <rect id="Rectangle"    x="595"   y="6.5"  width="4" height="47px" rx="2"></rect> <!-- 7 -->
    <rect id="Rectangle"    x="602"   y=".5"   width="4" height="59px" rx="2"></rect> <!-- 9 -->
    <rect id="Rectangle"    x="609"   y=".5"   width="4" height="59px" rx="2"></rect> <!-- 9 -->
    <rect id="Rectangle"    x="616"   y="24.5" width="4" height="11px" rx="2"></rect> <!-- 1 -->
    <rect id="Rectangle"    x="623"   y="21.5" width="4" height="17px" rx="2"></rect> <!-- 2 -->
    <rect id="Rectangle"    x="630"   y="6.5"  width="4" height="47px" rx="2"></rect> <!-- 7 -->
    <rect id="Rectangle"    x="637"   y=".5"   width="4" height="59px" rx="2"></rect> <!-- 9 -->
    <rect id="Rectangle"    x="644"   y="12.5" width="4" height="35px" rx="2"></rect> <!-- 5 -->
    <rect id="Rectangle"    x="651"   y="6.5"  width="4" height="47px" rx="2"></rect> <!-- 7 -->
    <rect id="Rectangle"    x="658"   y="21.5" width="4" height="17px" rx="2"></rect> <!-- 2 -->
    <rect id="Rectangle"    x="665"   y=".5"   width="4" height="59px" rx="2"></rect> <!-- 9 -->
    <rect id="Rectangle"    x="672"   y=".5"   width="4" height="59px" rx="2"></rect> <!-- 9 -->
    <rect id="Rectangle"    x="679"   y="6.5"  width="4" height="47px" rx="2"></rect> <!-- 7 -->
    <rect id="Rectangle"    x="686"   y=".5"   width="4" height="59px" rx="2"></rect> <!-- 9 -->
    <rect id="Rectangle"    x="693"   y="6.5"  width="4" height="47px" rx="2"></rect> <!-- 7 -->
    <rect id="Rectangle"    x="700"   y=".5"   width="4" height="59px" rx="2"></rect> <!-- 9 -->
    <rect id="Rectangle"    x="707"   y="3.5"  width="4" height="53px" rx="2"></rect> <!-- 8 -->
    <rect id="Rectangle"    x="714"   y=".5"   width="4" height="59px" rx="2"></rect> <!-- 9 -->
    <rect id="Rectangle"    x="721"   y="21.5" width="4" height="17px" rx="2"></rect> <!-- 2 -->
    <rect id="Rectangle"    x="728"   y="3.5"  width="4" height="53px" rx="2"></rect> <!-- 8 -->
    <rect id="Rectangle"    x="735"   y=".5"   width="4" height="59px" rx="2"></rect> <!-- 9 -->
    <rect id="Rectangle"    x="742"   y="6.5"  width="4" height="47px" rx="2"></rect> <!-- 7 -->
    <rect id="Rectangle"    x="749"   y=".5"   width="4" height="59px" rx="2"></rect> <!-- 9 -->
    <rect id="Rectangle"    x="756"   y="3.5"  width="4" height="53px" rx="2"></rect> <!-- 8 -->
    <rect id="Rectangle"    x="763"   y="6.5"  width="4" height="47px" rx="2"></rect> <!-- 7 -->
    <rect id="Rectangle"    x="770"   y="18.5" width="4" height="23px" rx="2"></rect> <!-- 3 -->
    <rect id="Rectangle"    x="777"   y="12.5" width="4" height="35px" rx="2"></rect> <!-- 5 -->
    <rect id="Rectangle"    x="784"   y="6.5"  width="4" height="47px" rx="2"></rect> <!-- 7 -->
    <rect id="Rectangle"    x="791"   y="21.5" width="4" height="17px" rx="2"></rect> <!-- 2 -->
    <rect id="Rectangle"    x="798"   y=".5"   width="4" height="59px" rx="2"></rect> <!-- 9 -->
    <rect id="Rectangle"    x="805"   y=".5"   width="4" height="59px" rx="2"></rect> <!-- 9 -->
    <rect id="Rectangle"    x="812"   y="9.5"  width="4" height="41px" rx="2"></rect> <!-- 6 -->
    <rect id="Rectangle"    x="819"   y="24.5" width="4" height="11px" rx="2"></rect> <!-- 1 -->
    <rect id="Rectangle"    x="826"   y=".5"   width="4" height="59px" rx="2"></rect> <!-- 9 -->
    <rect id="Rectangle"    x="833"   y="6.5"  width="4" height="47px" rx="2"></rect> <!-- 7 -->
    <rect id="Rectangle"    x="840"   y="6.5"  width="4" height="47px" rx="2"></rect> <!-- 7 -->
    <rect id="Rectangle"    x="847"   y="3.5"  width="4" height="53px" rx="2"></rect> <!-- 8 -->
    <rect id="Rectangle"    x="854"   y=".5"   width="4" height="59px" rx="2"></rect> <!-- 9 -->
    <rect id="Rectangle"    x="861"   y="21.5" width="4" height="17px" rx="2"></rect> <!-- 2 -->
    <rect id="Rectangle"    x="868"   y=".5"   width="4" height="59px" rx="2"></rect> <!-- 9 -->
    <rect id="Rectangle"    x="875"   y="3.5"  width="4" height="53px" rx="2"></rect> <!-- 8 -->
    <rect id="Rectangle"    x="882"   y="12.5" width="4" height="35px" rx="2"></rect> <!-- 5 -->
    <rect id="Rectangle"    x="889"   y="6.5"  width="4" height="47px" rx="2"></rect> <!-- 7 -->
    <rect id="Rectangle"    x="896"   y="15.5" width="4" height="29px" rx="2"></rect> <!-- 4 -->
    <rect id="Rectangle"    x="903"   y=".5"   width="4" height="59px" rx="2"></rect> <!-- 9 -->
    <rect id="Rectangle"    x="910"   y="6.5"  width="4" height="47px" rx="2"></rect> <!-- 7 -->
    <rect id="Rectangle"    x="917"   y="9.5"  width="4" height="41px" rx="2"></rect> <!-- 6 -->
    <rect id="Rectangle"    x="924"   y="9.5"  width="4" height="41px" rx="2"></rect> <!-- 6 -->
    <rect id="Rectangle"    x="931"   y="3.5"  width="4" height="53px" rx="2"></rect> <!-- 8 -->
    <rect id="Rectangle"    x="938"   y="6.5"  width="4" height="47px" rx="2"></rect> <!-- 7 -->
    <rect id="Rectangle"    x="945"   y="12.5" width="4" height="35px" rx="2"></rect> <!-- 5 -->
    <rect id="Rectangle"    x="952"   y="12.5" width="4" height="35px" rx="2"></rect> <!-- 5 -->
    <rect id="Rectangle"    x="959"   y=".5"   width="4" height="59px" rx="2"></rect> <!-- 9 -->
    <rect id="Rectangle"    x="966"   y="3.5"  width="4" height="53px" rx="2"></rect> <!-- 8 -->
    <rect id="Rectangle"    x="973"   y=".5"   width="4" height="59px" rx="2"></rect> <!-- 9 -->
    <rect id="Rectangle"    x="980"   y="3.5"  width="4" height="53px" rx="2"></rect> <!-- 8 -->
    <rect id="Rectangle"    x="987"   y="27.5" width="4" height="5px"  rx="2"></rect> <!-- 0 -->
    <rect id="Rectangle"    x="994"   y="6.5"  width="4" height="47px" rx="2"></rect> <!-- 7 -->
    <rect id="Rectangle"    x="1001"  y=".5"   width="4" height="59px" rx="2"></rect> <!-- 9 -->
    <rect id="Rectangle"    x="1008"  y="6.5"  width="4" height="47px" rx="2"></rect> <!-- 7 -->
    <rect id="Rectangle"    x="1015"  y="21.5" width="4" height="17px" rx="2"></rect> <!-- 2 -->
    <rect id="Rectangle"    x="1022"  y="21.5" width="4" height="17px" rx="2"></rect> <!-- 2 -->
    <rect id="Rectangle"    x="1029"  y=".5"   width="4" height="59px" rx="2"></rect> <!-- 9 -->
    <rect id="Rectangle"    x="1036"  y="3.5"  width="4" height="53px" rx="2"></rect> <!-- 8 -->
    <rect id="Rectangle"    x="1043"  y="6.5"  width="4" height="47px" rx="2"></rect> <!-- 7 -->
    <rect id="Rectangle"    x="1050"  y="15.5" width="4" height="29px" rx="2"></rect> <!-- 4 -->
    <rect id="Rectangle"    x="1057"  y="21.5" width="4" height="17px" rx="2"></rect> <!-- 2 -->
    <rect id="Rectangle"    x="1064"  y=".5"   width="4" height="59px" rx="2"></rect> <!-- 9 -->
    <rect id="Rectangle"    x="1071"  y="6.5"  width="4" height="47px" rx="2"></rect> <!-- 7 -->
    <rect id="Rectangle"    x="1078"  y=".5"   width="4" height="59px" rx="2"></rect> <!-- 9 -->
    <rect id="Rectangle"    x="1085"  y="24.5" width="4" height="11px" rx="2"></rect> <!-- 1 -->
    <rect id="Rectangle"    x="1092"  y="24.5" width="4" height="11px" rx="2"></rect> <!-- 1 -->
    <rect id="Rectangle"    x="1099"  y="18.5" width="4" height="23px" rx="2"></rect> <!-- 3 -->
    <rect id="Rectangle"    x="1106"  y="12.5" width="4" height="35px" rx="2"></rect> <!-- 5 -->
    <rect id="Rectangle"    x="1113"  y="9.5"  width="4" height="41px" rx="2"></rect> <!-- 6 -->
    <rect id="Rectangle"    x="1120"  y="3.5"  width="4" height="53px" rx="2"></rect> <!-- 8 -->
    <rect id="Rectangle"    x="1127"  y="21.5" width="4" height="17px" rx="2"></rect> <!-- 2 -->
    <rect id="Rectangle"    x="1134"  y="15.5" width="4" height="29px" rx="2"></rect> <!-- 4 -->
    <rect id="Rectangle"    x="1141"  y="9.5"  width="4" height="41px" rx="2"></rect> <!-- 6 -->
    <rect id="Rectangle"    x="1148"  y=".5"   width="4" height="59px" rx="2"></rect> <!-- 9 -->
    <rect id="Rectangle"    x="1155"  y="6.5"  width="4" height="47px" rx="2"></rect> <!-- 7 -->
    <rect id="Rectangle"    x="1162"  y="21.5" width="4" height="17px" rx="2"></rect> <!-- 2 -->
    <rect id="Rectangle"    x="1169"  y="6.5"  width="4" height="47px" rx="2"></rect> <!-- 7 -->
    <rect id="Rectangle"    x="1176"  y="6.5"  width="4" height="47px" rx="2"></rect> <!-- 7 -->
    <rect id="Rectangle"    x="1183"  y="3.5"  width="4" height="53px" rx="2"></rect> <!-- 8 -->
    <rect id="Rectangle"    x="1190"  y=".5"   width="4" height="59px" rx="2"></rect> <!-- 9 -->
    <rect id="Rectangle"    x="1197"  y="15.5" width="4" height="29px" rx="2"></rect> <!-- 4 -->
    <rect id="Rectangle"    x="1204"  y="9.5"  width="4" height="41px" rx="2"></rect> <!-- 6 -->
    <rect id="Rectangle"    x="1211"  y="24.5" width="4" height="11px" rx="2"></rect> <!-- 1 -->
    <rect id="Rectangle"    x="1218"  y="3.5"  width="4" height="53px" rx="2"></rect> <!-- 8 -->
    <rect id="Rectangle"    x="1225"  y="6.5"  width="4" height="47px" rx="2"></rect> <!-- 7 -->
    <rect id="Rectangle"    x="1232"  y="21.5" width="4" height="17px" rx="2"></rect> <!-- 2 -->
    <rect id="Rectangle"    x="1239"  y="18.5" width="4" height="23px" rx="2"></rect> <!-- 3 -->
    <rect id="Rectangle"    x="1246"  y="21.5" width="4" height="17px" rx="2"></rect> <!-- 2 -->
    <rect id="Rectangle"    x="1253"  y=".5"   width="4" height="59px" rx="2"></rect> <!-- 9 -->
    <rect id="Rectangle"    x="1260"  y="3.5"  width="4" height="53px" rx="2"></rect> <!-- 8 -->
    <rect id="Rectangle"    x="1267"  y=".5"   width="4" height="59px" rx="2"></rect> <!-- 9 -->
    <rect id="Rectangle"    x="1274"  y="21.5" width="4" height="17px" rx="2"></rect> <!-- 2 -->
    <rect id="Rectangle"    x="1281"  y="6.5"  width="4" height="47px" rx="2"></rect> <!-- 7 -->
    <rect id="Rectangle"    x="1288"  y="9.5"  width="4" height="41px" rx="2"></rect> <!-- 6 -->
    <rect id="Rectangle"    x="1295"  y=".5"   width="4" height="59px" rx="2"></rect> <!-- 9 -->
    <rect id="Rectangle"    x="1302"  y="21.5" width="4" height="17px" rx="2"></rect> <!-- 2 -->
    <rect id="Rectangle"    x="1309"  y="27.5" width="4" height="5px"  rx="2"></rect> <!-- 0 -->
    <rect id="Rectangle"    x="1316"  y="12.5" width="4" height="35px" rx="2"></rect> <!-- 5 -->
    <rect id="Rectangle"    x="1323"  y="3.5"  width="4" height="53px" rx="2"></rect> <!-- 8 -->
    <rect id="Rectangle"    x="1330"  y="6.5"  width="4" height="47px" rx="2"></rect> <!-- 7 -->
    <rect id="Rectangle"    x="1337"  y="6.5"  width="4" height="47px" rx="2"></rect> <!-- 7 -->
    <rect id="Rectangle"    x="1344"  y="3.5"  width="4" height="53px" rx="2"></rect> <!-- 8 -->
    <rect id="Rectangle"    x="1351"  y="21.5" width="4" height="17px" rx="2"></rect> <!-- 2 -->
    <rect id="Rectangle"    x="1358"  y="12.5" width="4" height="35px" rx="2"></rect> <!-- 5 -->
    <rect id="Rectangle"    x="1365"  y="9.5"  width="4" height="41px" rx="2"></rect> <!-- 6 -->
    <rect id="Rectangle"    x="1372"  y="18.5" width="4" height="23px" rx="2"></rect> <!-- 3 -->
    <rect id="Rectangle"    x="1379"  y="15.5" width="4" height="29px" rx="2"></rect> <!-- 4 -->
    <rect id="Rectangle"    x="1386"  y="24.5" width="4" height="11px" rx="2"></rect> <!-- 1 -->
    <rect id="Rectangle"    x="1393"  y="6.5"  width="4" height="47px" rx="2"></rect> <!-- 7 -->
    <rect id="Rectangle"    x="1400"  y="24.5" width="4" height="11px" rx="2"></rect> <!-- 1 -->
  </g>
</svg>

