<?xml version="1.0" standalone="no"?><!DOCTYPE svg PUBLIC "-//W3C//DTD SVG 1.1//EN" "http://www.w3.org/Graphics/SVG/1.1/DTD/svg11.dtd"><svg class="icon" width="200px" height="200.00px" viewBox="0 0 1024 1024" version="1.1" xmlns="http://www.w3.org/2000/svg"><path d="M1024 877.714286l-146.285714 146.285714-365.714286-365.714286L146.285714 1024l-146.285714-146.285714 365.714286-365.714286L0 146.285714l146.285714-146.285714 365.714286 365.714286L877.714286 0l146.285714 146.285714-365.714286 365.714286z" fill="#7dc5eb" /><path d="M292.571429 877.714286l-146.285715 146.285714-146.285714-146.285714 146.285714-146.285715 146.285715 146.285715zM1024 146.285714l-146.285714 146.285715-146.285715-146.285715 146.285715-146.285714 146.285714 146.285714z m-292.571429 731.428572l146.285715 146.285714 146.285714-146.285714-146.285714-146.285715-146.285715 146.285715zM0 146.285714l146.285714 146.285715 146.285715-146.285715-146.285715-146.285714-146.285714 146.285714z" fill="#333333" /></svg>