<?xml version="1.0" standalone="no"?><!DOCTYPE svg PUBLIC "-//W3C//DTD SVG 1.1//EN" "http://www.w3.org/Graphics/SVG/1.1/DTD/svg11.dtd"><svg class="icon" width="200px" height="200.00px" viewBox="0 0 1024 1024" version="1.1" xmlns="http://www.w3.org/2000/svg"><path d="M360.5 282.8l-1.5 0.9c-4.3 2.5-8.6 5.2-12.7 7.9-2.1 1.4-4.1 2.7-6.2 4.2-1.3 0.8-2.6 1.8-3.9 2.7-5.2-3.1-10.4-6-15.4-8.8 9.7-7.3 19.8-14 30.1-20 0.5 0.3 1.1 0.6 1.6 0.9 4.6 2.7 7.4 7.2 8 12.2z" fill="#323332" /><path d="M208.9 321c0 1.3 0.1 2.6 0.1 3.9 0 15.4-4.8 30-13.8 42.4-3.9-4-7.8-8-11.4-11.9 6.3-9.6 9.7-21.2 9-33.5-1.6-30-26.6-53.1-56.6-54.4-8.1-0.3-15.9 0.9-23.1 3.5-3.4-4.8-6.4-9.4-9.1-13.8 10.3-4.2 21.5-6.3 32.9-5.8 39 1.6 70 31.6 72 69.6z" fill="#8A278E" /><path d="M553.2 845c8.1-0.8 16.1-1.8 24.1-3.2-12.9 2.2-26 3.7-39.4 4.4 2.5-0.1 5-0.3 7.5-0.5 2.6-0.2 5.3-0.5 7.8-0.7z" fill="#323332" /><path d="M802.4 639.6c13.4-36.3 19.2-75.4 16.6-115.2-3.5-53.8-22.3-104-52.5-146.1 3-4.8 5.9-9.5 8.8-14.2 32 42.3 53 92.9 58.8 147.9 0.2 2.5 0.5 5.1 0.7 7.7 0.1 1.9 0.3 3.8 0.4 5.7 0.1 1.8 0.2 3.6 0.3 5.3 0 1.2 0.1 2.4 0.1 3.6 0.1 2.9 0.1 5.7 0.1 8.7 0 31.1-4.8 61-13.8 89.2-3.4 0.4-6.7 1.9-9.2 4.6-1.6 1.6-2.7 3.4-3.5 5.3l-6.8-2.5zM285 452.5c-3.7 11.4-6.7 23-8.9 34.9-12.9-11.2-25.4-22.4-37.4-33.5 3.6-10.8 8-21.4 12.9-31.8 10.6 10 21.8 20.1 33.4 30.4zM336.3 298.5c6.4 3.7 14.3 2.5 19.4-2.4l3.8 6.1c-13.3 8.4-26.1 17.8-38.1 28.4-29.9 26.2-53.4 57.4-69.9 91.6-4.2-3.8-8.3-7.7-12.3-11.5 3.2-6.3 6.6-12.5 10.2-18.5 12.6-21.2 27.8-40.7 45.1-58.3 1.8-1.8 3.5-3.5 5.3-5.2 5.3-5.1 10.8-10.1 16.5-14.9 5.7-4.8 11.6-9.3 17.6-13.7 0.7-0.5 1.5-1.1 2.2-1.6 0.1-0.1 0.2 0 0.2 0z" fill="#8A278E" /><path d="M775.3 364.1c-6.8-9-14.1-17.6-21.9-25.8 0.1-0.2 0.3-0.4 0.4-0.7 7.8 8.2 15.1 16.8 21.8 25.9-0.1 0.3-0.2 0.5-0.3 0.6z" fill="#323332" /><path d="M702.8 791c5.3 3 10.6 5.9 15.8 8.7-57.2 41.3-125.6 62.9-196.8 62.9-23 0-46.3-2.2-69.6-6.9-21.1-4.2-41.5-10.4-60.9-18.3 4.3-4 8.6-8.1 12.9-12.3 16.4 6.3 33.5 11.2 51.1 14.7 8.5 1.7 16.8 3 25.2 4 4.8 0.6 9.7 1.1 14.5 1.5 0.9 0.1 1.7 0.1 2.6 0.2l5.4 0.3h1.2c2.8 0.2 5.6 0.3 8.5 0.3 3 0.1 6 0.1 9 0.1 5.4 0 10.8-0.1 16.1-0.4 13.4-0.7 26.5-2.1 39.4-4.4 7.7-1.3 15.3-2.9 22.9-4.8 15-3.7 29.7-8.5 43.7-14.3 4.7-1.9 9.3-3.9 13.9-6.1 9.1-4.2 18.1-8.9 26.7-14 6.4-3.2 12.5-7.1 18.4-11.2zM372.4 810.9c-4.2 3.9-8.4 7.9-12.5 11.7-40.8-22.1-76-52.4-103.6-88.5 2.8-4.9 5.7-9.9 8.8-15 27.9 38.2 64.6 69.7 107.3 91.8z" fill="#8A278E" /><path d="M172.2 343.1c-1.8 3.6-4.3 7-7.3 10-4.9 4.9-10.8 8.6-17.4 10.7-17.7-19.3-35.6-40.2-50.9-60.7 1.5-2.3 3.3-4.6 5.3-6.7 5.7-5.8 13.1-9.8 21.1-11.7 13.1 17.5 29.6 37.1 49.2 58.4z" fill="#C1D2DB" /><path d="M488.5 241.4c-1.4 0.1-2.8 0.3-4.2 0.4 0.6-0.1 1.3-0.1 1.9-0.2 0.8 0 1.6-0.1 2.3-0.2z" fill="#323332" /><path d="M812.8 659.7c3.9 3.9 7.8 7.7 11.5 11.5-17.9 39.9-44.4 76.1-78.4 106.5-5-2.6-10.1-5.3-15.2-8.1 6.4-5.4 12.5-11.2 18.3-17.2 7-7 13.5-14.3 19.7-22 3.1-3.8 6.1-7.7 9-11.7 2.9-3.9 5.7-8 8.5-12.1 4.1-6.2 7.9-12.5 11.6-19 2.4-4.3 4.7-8.6 6.9-13 2.6-5.2 5.1-10.4 7.3-15.8 0.3 0.4 0.5 0.6 0.8 0.9zM417 812.8c-4.1 4-8.3 8-12.3 12-10.9-4.2-21.5-9-31.7-14.3 3.9-3.7 7.8-7.4 11.8-11.3 10.4 5.1 21.2 9.6 32.2 13.6zM123 284.8c-3.6-4.8-7-9.4-10-13.9 7.1-2.5 15-3.8 23.1-3.5 30 1.3 55 24.4 56.6 54.4 0.6 12.3-2.8 23.9-9 33.5-4-4.2-7.8-8.3-11.5-12.3 3.3-6.2 4.8-13.2 4.4-20.5-0.6-10.7-5.3-20.2-12.6-27.2s-17.4-11.4-28.5-11.9h-2c-3.6 0.1-7.1 0.6-10.5 1.4z" fill="#8A278E" /><path d="M504.3 846.1h-1.2c-0.8 0-1.6-0.1-2.3-0.2 1.1 0 2.3 0.1 3.5 0.2zM385.6 269.6c4.6-2.1 9.2-4.2 13.9-6.1-4.6 2-9.3 4-13.9 6.1z" fill="#323332" /><path d="M821.9 632.3c-1.6 5.1-3.4 10.2-5.3 15.1-1.5 3.8-3 7.6-4.6 11.4-4.1-4.7-5.1-11.1-2.9-16.6 0.8-1.9 1.9-3.7 3.5-5.3 2.6-2.6 5.9-4.1 9.3-4.6z" fill="#8A278E" /><path d="M521.8 239.7c-2.7 0-5.4 0-8.1 0.1h-0.9c3-0.1 6-0.1 9-0.1z" fill="#323332" /><path d="M247.6 692c-3.2 1.2-5.9 3.5-7.8 6.6-1.2 1.9-2.3 3.9-3.5 5.8-25.1-41.9-40.6-89.8-44-140.6-3-46.4 4.2-91.9 20.6-133.9 4.2 4 8.4 8 12.7 12-11.6 31.6-17.9 65.6-17.9 101.1 0 3.3 0 6.6 0.2 9.8 0.1 3.3 0.2 6.6 0.5 9.9 0.1 2.1 0.3 4.2 0.5 6.2v0.4c0.1 2.1 0.3 4.1 0.6 6.2 0 0.6 0.1 1.3 0.2 1.8 0.4 3.6 0.9 7.2 1.5 10.8 0.1 0.9 0.3 1.8 0.4 2.6 0.3 1.9 0.6 3.9 1 5.9 0.4 2.5 0.9 5 1.5 7.4 6.5 31.5 17.9 61.1 33.5 88zM113.1 270.9c3 4.4 6.4 9 10 13.9-8 1.9-15.3 5.9-21.1 11.7-2 2.1-3.8 4.3-5.3 6.7-3.5-4.6-6.8-9.2-9.9-13.8 6.7-8.3 15.8-14.8 26.3-18.5zM722.1 755.7c36.8-32.3 64.1-72.2 80.3-116.1l6.8 2.6c-2.2 5.5-1.3 12 2.9 16.6-2.3 5.3-4.7 10.6-7.3 15.8-2.2 4.4-4.5 8.8-6.9 13-3.6 6.5-7.5 12.8-11.6 19-2.8 4.1-5.6 8.1-8.5 12.1-2.9 4-5.9 7.9-9 11.7-6.3 7.6-12.8 15-19.7 22-5.9 6-12 11.7-18.4 17.2-5-2.7-10-5.5-15.1-8.4 2.2-1.8 4.3-3.6 6.5-5.5z" fill="#8A278E" /><path d="M545.4 845.7c-2.5 0.2-5 0.3-7.5 0.5-5.3 0.2-10.7 0.4-16.1 0.4-2.7 0-5.5 0-8.2-0.1 10.7 0.2 21.3-0.1 31.8-0.8zM644 822.7c4.7-1.9 9.3-4 13.9-6.1-4.6 2.1-9.2 4.2-13.9 6.1z" fill="#323332" /><path d="M183.8 355.4c3.6 3.9 7.5 7.8 11.4 11.9-2.2 3-4.7 5.9-7.3 8.6-5 5.1-10.6 9.3-16.8 12.7-0.3-0.2-0.5-0.5-0.8-0.8-3.6-3.7-7.2-7.4-10.9-11.3 10-4.7 18.4-12.1 24.4-21.1z" fill="#8A278E" /><path d="M753.8 337.7c-0.1 0.2-0.2 0.4-0.4 0.7-33.8-35.8-76.4-63.6-124.5-80.5 0.1-0.1 0.3-0.2 0.5-0.4 48.1 16.5 90.6 44.3 124.4 80.2zM488.4 828.7c-1.7 0.6-3.4 1.1-5 1.7-3.6-1.2-7.2-2.4-10.7-3.8 5.2 0.8 10.4 1.5 15.7 2.1zM316.3 313.7c5.7-4.8 11.6-9.3 17.6-13.7-6 4.3-11.9 8.9-17.6 13.7z" fill="#323332" /><path d="M495 845.4c-4.9-0.3-9.7-0.9-14.5-1.5-26.4-3.4-51.9-9.9-75.8-19.3 4.1-3.9 8.2-7.9 12.3-12 13.4 4.7 27.2 8.6 41.4 11.4 4.7 0.9 9.4 1.8 14.1 2.4 3.5 1.4 7.1 2.6 10.7 3.8-10.3 3.4-20.7 6.2-31.4 8.6 14.2 3.2 28.6 5.4 43.2 6.6zM227 399c-5.3 10.1-10 20.4-14.1 31-14.8-14.1-28.8-27.9-41.9-41.4 6.2-3.4 11.9-7.7 16.8-12.7 2.7-2.7 5.2-5.6 7.3-8.6 10 10.2 20.7 20.8 31.9 31.7z" fill="#8A278E" /><path d="M797.8 687.7c2.4-4.3 4.7-8.7 6.9-13-2.2 4.4-4.4 8.7-6.9 13zM513.6 846.4h-0.8c-2.5 0-4.9-0.1-7.4-0.3 2.7 0.2 5.4 0.3 8.2 0.3z" fill="#323332" /><path d="M818.9 524.4c2.6 39.8-3.2 78.9-16.6 115.2-16.2 43.9-43.5 83.7-80.3 116.1-2.1 1.9-4.3 3.7-6.5 5.5-24.4-13.6-49.8-28.5-75.8-44.6 35.5-49.1 56.4-109 56.4-173.5 0-18.3-1.7-36.3-4.9-53.7 27.3-38 52.6-75.4 75.2-111 30.2 42.1 49 92.2 52.5 146z" fill="#CADBE4" /><path d="M483.3 255.9c-3.8 1.3-7.7 2.6-11.5 4-40 6.4-78.1 20.7-112.3 42.3l-3.8-6.1c1-1 1.9-2.2 2.7-3.5 1.8-3.1 2.4-6.5 2.1-9.8 8.2-4.7 16.6-9.1 25.2-13.1 4.6-2.1 9.2-4.1 13.9-6.1 9.4-3.8 19-7.2 28.8-10.2 4.9-1.5 9.9-2.8 14.9-4.1 7.5-1.8 15.2-3.5 22.9-4.8 0.9-0.2 1.8-0.3 2.7-0.4-5.7 1-11.3 2.1-16.9 3.3 10.6 2.2 21.1 5.1 31.3 8.5z" fill="#8A278E" /><path d="M607.1 234c-4.3 4.2-5.7 10.2-4.4 15.5-4.8-1.2-9.6-2.3-14.5-3.3-8.5-1.7-16.8-3-25.2-4-3.3-0.4-6.6-0.8-9.9-1.1-0.9-0.1-1.8-0.2-2.7-0.2-1.5-0.1-3-0.3-4.5-0.4-2.7-0.2-5.3-0.3-8-0.5-5.3-0.2-10.7-0.4-16.1-0.4-3 0-6 0-9 0.1-2.9 0-5.7 0.1-8.5 0.3h-1.2c-2.7 0.1-5.4 0.3-8 0.6-3 0.2-5.9 0.5-8.8 0.8-5.8 0.6-11.5 1.4-17.1 2.3h-0.2c-0.9 0.1-1.8 0.2-2.7 0.4-7.8 1.3-15.4 2.9-22.9 4.8-5 1.2-10 2.6-14.9 4.1-9.8 3-19.4 6.4-28.8 10.2-4.7 1.9-9.3 3.9-13.9 6.1-8.7 4-17 8.4-25.2 13.1-0.5-4.9-3.3-9.5-7.9-12.2-0.5-0.3-1.1-0.6-1.6-0.9 70.9-41.7 155.6-56 240.4-39.2 5.1 1.4 10.4 2.6 15.6 3.9z" fill="#8A278E" /><path d="M239.2 410.6c-2.4 4.8-4.6 9.5-6.8 14.3 2.2-4.7 4.5-9.6 6.8-14.3z" fill="#323332" /><path d="M239.2 410.6c-2.4 4.7-4.7 9.5-6.8 14.3-2.5 5.6-4.8 11.2-6.8 17-4.3-4-8.6-8-12.7-12 4.1-10.6 8.8-21 14.1-31 4 3.9 8.1 7.8 12.2 11.7zM350.9 269.6c-10.4 6-20.4 12.7-30.1 20-168.2-95.5-226.5-92.4-233.7-83.5-1.8 2.2-1.5 6.9-1.2 9.4 1.4 10.4 7.4 24.5 18 41.6-9.3 3.8-17.7 9.4-24.9 16.6-0.5 0.5-1 1.1-1.6 1.6C64.8 255 56 235.8 54 219.7c-1.8-13.5 0.9-24.8 7.9-33.6 16.6-20.9 52.4-21.7 109.4-2.6 47.6 15.8 109.7 45.7 179.6 86.1z" fill="#8A278E" /><path d="M602.7 249.6c0 0.1 0.1 0.3 0.1 0.4-13-3.4-26.3-5.9-39.8-7.7 8.4 1 16.7 2.3 25.2 4 4.9 1 9.7 2 14.5 3.3zM537.9 240.1h0.2c-8.2-0.4-16.4-0.5-24.5-0.3 2.7-0.1 5.4-0.1 8.1-0.1 5.5 0 10.9 0.1 16.2 0.4zM346.2 291.5c4.2-2.7 8.4-5.3 12.7-7.9-4.2 2.6-8.5 5.2-12.7 7.9zM208 552.9c0.1 3.3 0.3 6.6 0.5 9.9-0.3-3.2-0.4-6.6-0.5-9.9z" fill="#323332" /><path d="M556.1 662.2c-7 8.3-14.1 16.5-21.2 24.7-8.8-6-17.8-12.2-26.7-18.4 7.1-8.1 14.1-16.3 21.2-24.6 8.9 6.1 17.8 12.3 26.7 18.3zM251.5 422.2c-5 10.4-9.3 21-12.9 31.8-4.4-4-8.7-8-12.9-11.9 2.1-5.7 4.4-11.4 6.8-17 2.1-4.8 4.4-9.6 6.8-14.3 4 3.7 8.1 7.5 12.2 11.4z" fill="#8A278E" /><path d="M500.7 845.8c-1 0-2.1-0.1-3.1-0.1-0.9-0.1-1.7-0.1-2.6-0.2l5.7 0.3z" fill="#323332" /><path d="M147.5 363.9c4 4.3 7.9 8.5 11.8 12.6-8.6 4-18.3 6.1-28.6 5.7-30-1.3-55.1-24.4-56.6-54.4-0.8-14.5 4.1-28 12.6-38.5 3.2 4.6 6.5 9.1 9.9 13.8-4.6 7-6.9 15.3-6.4 23.8 1.1 21.3 18.8 38.2 41.2 39.1 5.6 0.3 11-0.5 16.1-2.1z" fill="#8A278E" /><path d="M316.3 313.7c-5.7 4.8-11.2 9.8-16.5 14.9 5.3-5.2 10.8-10.2 16.5-14.9z" fill="#323332" /><path d="M359.5 302.2c34.2-21.6 72.3-35.8 112.3-42.3C382.9 293 313.5 364.1 285 452.5c-11.6-10.3-22.8-20.5-33.5-30.4 16.5-34.2 40-65.4 69.9-91.6 12.1-10.5 24.8-20 38.1-28.3z" fill="#E1F3FC" /><path d="M642.3 244.9c-4.1 4-8.3 8-12.5 12.2-0.1 0.1-0.2 0.2-0.4 0.3-8.7-3-17.6-5.6-26.6-7.8-1.3-5.3 0.1-11.3 4.4-15.5 12 2.9 23.7 6.6 35.1 10.8z" fill="#8A278E" /><path d="M248 691.8c5.3 9.2 11.1 18.1 17.5 26.7l-0.3 0.6c-6.3-8.7-12.2-17.7-17.6-27.1 0.2-0.1 0.3-0.2 0.4-0.2z" fill="#323332" /><path d="M851.2 522.4c0.4 7 0.7 13.9 0.7 20.7 0 32.7-5.1 64.7-14.9 95.1l-1.5-1.5c-3.7-3.6-8.8-5.2-13.6-4.4 9-28.2 13.8-58.1 13.8-89.2 0-2.9 0-5.8-0.1-8.7 0-1.2 0-2.4-0.1-3.6-0.1-1.8-0.2-3.6-0.3-5.3 0-0.7 0-1.4-0.1-2.1-0.1-1.2-0.1-2.4-0.3-3.6-0.1-2.6-0.4-5.2-0.7-7.7-5.7-55.3-26.6-106.1-58.5-148.5 3.1-4.9 6.1-9.8 9-14.7 38.3 48.9 62.3 108.8 66.6 173.5z" fill="#8A278E" /><path d="M505.6 240.1c-2.4 0.1-4.7 0.2-7 0.4l4.5-0.3h1.2c0.4-0.1 0.9-0.1 1.3-0.1zM208.5 562.8c0.1 2.1 0.3 4.2 0.5 6.2-0.2-2-0.4-4.1-0.5-6.2z" fill="#323332" /><path d="M512.8 239.8c-2.4 0-4.8 0.1-7.1 0.3h-1.4c2.8-0.1 5.6-0.2 8.5-0.3z" fill="#323332" /><path d="M628.6 709.6c-5.9 3.9-13.2 5.9-21.1 5.1-14.7-1.5-26.7-13-28-27.8-0.2-3 0-5.9 0.5-8.7 16.5 10.9 32.6 21.4 48.6 31.4z" fill="#C1D2DB" /><path d="M480.5 844c-8.4-1-16.7-2.3-25.2-4-17.6-3.5-34.7-8.4-51.1-14.7l0.5-0.5c23.9 9.3 49.3 15.8 75.8 19.2zM212.7 596.8zM404.7 824.7c-0.1 0.2-0.3 0.3-0.5 0.5-10.9-4.2-21.5-8.9-31.8-14.3l0.5-0.5c10.3 5.3 20.9 10.1 31.8 14.3zM340 295.7c2-1.4 4.1-2.8 6.2-4.2 4.2-2.7 8.5-5.3 12.7-7.9 0.5-0.3 1-0.6 1.5-0.8 0.3 3.3-0.3 6.8-2.1 9.8-0.7 1.3-1.7 2.4-2.7 3.5-5.1 5-12.9 6.2-19.4 2.4 0 0-0.1-0.1-0.2-0.1 1.5-1 2.7-1.9 4-2.7zM211.7 591c0.3 1.9 0.6 3.9 1 5.9-0.4-2-0.7-4-1-5.9zM550.5 240.9c-1.7-0.1-3.4-0.3-5-0.4h0.5c1.4 0.2 2.9 0.3 4.5 0.4zM812 658.8c1.6-3.7 3.2-7.5 4.6-11.4-1.4 3.9-2.9 7.7-4.6 11.4z" fill="#323332" /><path d="M642.3 682c0.9 11.5-4.7 21.7-13.7 27.6-15.9-10-32.1-20.5-48.5-31.3 3.2-14.8 17.6-25.8 34.2-24.1 14.7 1.5 26.8 13 28 27.8z" fill="#C1D2DB" /><path d="M876.8 116.8c6 46.4-33.9 129.7-68.5 191.4-7.4 13.2-15.3 26.8-23.7 40.7-7-8.8-14.3-17.4-22.2-25.5 58.6-98.8 86.4-171.3 82.4-202.5-0.3-2.7-1.3-7.4-3.7-9.2-5.1-3.7-25-2.8-67.6 24.6-36.3 23.2-81.4 60.7-131.2 108.7-11.4-4.2-23.1-7.9-35.1-10.9 56.3-55.4 107.7-98.6 148.9-125 49-31.5 83.1-39 104.3-23.3 9.1 6.8 14.6 17.2 16.4 31zM404.2 825.2l-12.9 12.3c-10.8-4.4-21.3-9.4-31.4-14.9 4.1-3.8 8.3-7.7 12.5-11.7 10.3 5.4 20.9 10.1 31.8 14.3z" fill="#8A278E" /><path d="M768.8 730.4c-6.2 7.6-12.8 15-19.7 22 6.8-7 13.4-14.3 19.7-22zM545.9 240.6h-0.5c-2.4-0.2-4.9-0.3-7.3-0.4h-0.2c2.7 0 5.4 0.2 8 0.4z" fill="#323332" /><path d="M508.2 668.4c8.9 6.2 17.9 12.4 26.7 18.4-37.1 42.7-74 82.4-109.6 117.8-9.6-5.5-18.9-11.5-27.8-17.9 35.8-35.3 73.1-75.2 110.7-118.3z" fill="#8A278E" /><path d="M385.6 269.6c-8.6 4-17 8.4-25.2 13.1 8.2-4.7 16.6-9.1 25.2-13.1z" fill="#323332" /><path d="M550.5 240.9c0.9 0 1.8 0.1 2.7 0.2-24.2 2.3-47.6 7.3-69.8 14.7-10.2-3.4-20.7-6.2-31.3-8.6 5.6-1.2 11.2-2.3 16.9-3.3h0.2l8.4-1.2c2.2-0.3 4.5-0.6 6.8-0.9 1.4-0.1 2.8-0.3 4.2-0.4 1.1-0.1 2.2-0.2 3.4-0.3 1.7-0.1 3.3-0.3 5-0.4 0.6 0 1.2-0.1 1.7-0.1 2.3-0.2 4.7-0.3 7-0.4 2.7-0.1 5.3-0.2 8-0.3 8.1-0.2 16.2-0.1 24.5 0.3 2.5 0.1 4.9 0.2 7.3 0.4 1.6 0.1 3.3 0.2 5 0.3z" fill="#8A278E" /><path d="M835.2 525.5c-0.1-1.9-0.2-3.8-0.4-5.7l0.3 3.6c0 0.7 0.1 1.4 0.1 2.1zM443.3 249.3c7.5-1.9 15.1-3.5 22.9-4.8-7.7 1.3-15.4 2.9-22.9 4.8z" fill="#323332" /><path d="M425.3 804.6c-2.8 2.7-5.5 5.4-8.3 8.2-11.1-3.9-21.9-8.5-32.3-13.7 4.2-4 8.5-8.2 12.7-12.4 9 6.4 18.3 12.4 27.9 17.9z" fill="#8A278E" /><path d="M397.5 786.7c-4.3 4.2-8.5 8.4-12.7 12.4-47.7-23.6-87.7-59.6-115.8-103.3-25.4-39.4-41.2-85.2-44.4-134-2.4-37.1 2.5-73.6 14.1-107.8 12.1 11.1 24.6 22.3 37.4 33.5-3.5 18-5.3 36.7-5.3 55.7-0.1 99.7 49.8 188.2 126.7 243.5z" fill="#E1F3FC" /><path d="M249.4 392.1c-3.6 6-7 12.2-10.2 18.5 3.2-6.3 6.6-12.5 10.2-18.5z" fill="#323332" /><path d="M170.3 387.8l0.8 0.8c-11.3 6.4-24.3 9.8-37.6 9.8h-3.3C91 396.6 60 366.7 58 328.7c-1.1-19.8 5.8-38.7 19.5-53.3 2.9 4.6 5.9 9.3 9.2 14-8.5 10.5-13.4 23.9-12.6 38.5 1.6 30 26.6 53.1 56.6 54.4 10.3 0.4 20-1.7 28.6-5.7 3.8 3.8 7.4 7.5 11 11.2zM946 765.7c27.8 43.1 33.7 73.6 18 93.2-8.7 10.9-22.5 16.4-41.8 16.4-10 0-21.3-1.5-34.3-4.3-31.1-6.9-70.9-22.1-118.3-45-16.4-8-33.5-16.7-51.1-26.2 8.6-6.2 16.8-12.8 24.8-19.8 0.8-0.7 1.7-1.5 2.5-2.2 13 6.8 25.6 13.2 37.9 19.2 111.5 54.1 149.7 48.6 155.1 42 6.1-7.7-2.8-54.6-114.5-167.6 4.9-10.7 9.1-21.7 12.7-33 48.8 48.2 86.5 92.2 109 127.3z" fill="#8A278E" /><path d="M749 752.4c-5.8 6-12 11.7-18.3 17.2 6.3-5.5 12.4-11.2 18.3-17.2z" fill="#323332" /><path d="M675.7 351.5c1.9 17.3-7 32.8-21.1 40.9-14.5-24.5-32.5-46.8-53.3-66.4 9.1-8.8 22.3-13.7 36.7-11.9 19.7 2.5 35.6 17.7 37.7 37.4z" fill="#C1D2DB" /><path d="M472.6 826.6c-4.7-0.7-9.4-1.5-14.1-2.4-14.2-2.8-28.1-6.7-41.4-11.4 2.7-2.7 5.5-5.4 8.3-8.2 14.9 8.5 30.7 15.9 47.2 22z" fill="#9CC6E9" /><path d="M294.5 333.8c-17.3 17.6-32.5 37.1-45.1 58.3 12.6-21.2 27.8-40.8 45.1-58.3z" fill="#323332" /><path d="M775.3 364.1c-2.9 4.7-5.9 9.4-8.8 14.2-5.9-8.3-12.3-16.2-19.1-23.8-0.8-0.9-1.6-1.8-2.3-2.6 2.9-4.6 5.7-9.2 8.4-13.7 7.7 8.3 15 17 21.8 25.9z" fill="#8A278E" /><path d="M577.3 841.8c7.7-1.4 15.4-3 22.9-4.8-7.5 1.9-15.1 3.5-22.9 4.8zM503.1 240.2l-4.5 0.3c-0.5 0-1.1 0-1.7 0.1-0.6 0-1.2 0.1-1.8 0.1 2.6-0.1 5.2-0.3 8-0.5zM657.9 816.6c9.1-4.3 18-8.9 26.7-14-8.7 5.1-17.6 9.8-26.7 14z" fill="#323332" /><path d="M534.9 686.8c28.6 19.5 56.9 37.9 84.5 55-34.9 38.8-79.9 69-131 86.8-5.3-0.5-10.5-1.2-15.8-2.1-16.5-6.1-32.3-13.5-47.3-22 35.6-35.3 72.5-74.9 109.6-117.7z" fill="#E1F3FC" /><path d="M484.3 241.9zM483.3 255.9c1.8 0.6 3.5 1.2 5.3 1.8-5.6 0.5-11.2 1.3-16.7 2.2 3.7-1.5 7.6-2.8 11.4-4zM503.1 846l-5.4-0.3c1 0 2.1 0.1 3.1 0.1 0.7 0.1 1.5 0.2 2.3 0.2zM629.4 257.4c-0.1 0.2-0.3 0.3-0.5 0.4-8.5-3-17.2-5.6-26.1-7.9 0-0.1 0-0.2-0.1-0.4 9.1 2.3 18 4.9 26.7 7.9z" fill="#323332" /><path d="M619.4 741.9c23.1 14.4 45.8 27.9 67.7 40.4-58.1 37.5-127.6 53.8-198.7 46.4 51.1-17.8 96-48 131-86.8z" fill="#CADBE4" /><path d="M248 691.8c-0.1 0-0.3 0.1-0.4 0.2-15.6-26.9-27-56.4-33.5-87.7 6.7 31.2 18.2 60.6 33.9 87.5z" fill="#323332" /><path d="M745 352c-18.8 30.3-40.3 62.7-64.3 96.9-6.7-19.8-15.5-38.7-26-56.4 14-8.1 22.9-23.6 21.1-40.9-2.1-19.6-18.1-34.9-37.7-37.3-14.3-1.8-27.5 3.1-36.7 11.9-31.8-30-70.2-53.5-112.8-68.4 10.9-1.2 22-1.8 33.2-1.8 20.9 0 42.1 2 63.3 6.2C648.5 274.7 703.9 307 745 352z" fill="#CADBE4" /><path d="M399.5 263.6c9.4-3.8 19-7.2 28.8-10.2-9.7 2.9-19.4 6.3-28.8 10.2z" fill="#323332" /><path d="M628.2 398.2c9.8 0.9 18.9-1.4 26.5-5.8 10.6 17.7 19.3 36.7 26 56.4-28.2 40.1-60 82.6-95.3 126.9-18.6 23.3-37.3 46-56 68.1-24-16.7-48.1-34.1-72.3-52.1-65.5-48.8-123-95.7-172.1-139.2 28.5-88.5 97.9-159.6 186.8-192.6 5.5-0.9 11.1-1.7 16.7-2.2 42.6 14.8 81 38.4 112.8 68.4-8.7 8.3-13.7 19.9-12.9 32.8 1.5 21 18.7 37.4 39.8 39.3z" fill="#E1F3FC" /><path d="M486.3 241.6c-0.6 0.1-1.3 0.1-1.9 0.2-2.2 0.2-4.5 0.5-6.8 0.9-2.8 0.3-5.6 0.8-8.4 1.2 5.6-0.9 11.3-1.7 17.1-2.3z" fill="#323332" /><path d="M176.7 322.7c0.4 7.2-1.2 14.2-4.4 20.5-19.7-21.4-36.1-40.9-49.2-58.4 3.4-0.8 6.9-1.2 10.5-1.2h2c11.2 0.5 21.2 4.9 28.5 11.9 7.3 7 12 16.5 12.6 27.2z" fill="#C1D2DB" /><path d="M265.2 719.1c-3.1 5.1-6 10.1-8.8 15-7.2-9.5-14-19.4-20.1-29.6 1.2-1.9 2.3-3.9 3.5-5.8 1.9-3.2 4.7-5.4 7.8-6.6 5.4 9.3 11.2 18.3 17.6 27zM745.9 777.7c-0.8 0.8-1.7 1.5-2.5 2.2-8 7-16.3 13.6-24.8 19.8-5.2-2.8-10.5-5.7-15.8-8.7 0.2-0.1 0.5-0.3 0.7-0.5 9.4-6.5 18.5-13.5 27.2-21 5.1 2.9 10.2 5.6 15.2 8.2z" fill="#8A278E" /><path d="M834.8 519.8c-0.2-2.6-0.4-5.2-0.7-7.7 0.3 2.5 0.5 5.1 0.7 7.7z" fill="#323332" /><path d="M553.2 845c-2.6 0.2-5.2 0.5-7.8 0.7-10.5 0.7-21.1 1-31.9 0.7-2.7 0-5.4-0.1-8.2-0.3h-1.1c-1.2-0.1-2.4-0.1-3.5-0.2-1.9-0.1-3.8-0.2-5.7-0.4-14.6-1.2-29-3.5-43-6.5 10.6-2.3 21.1-5.2 31.4-8.6 22.2 7.3 45.6 12.3 69.8 14.6z" fill="#8A278E" /><path d="M777.8 718.7c2.9-3.9 5.7-8 8.5-12.1-2.8 4.2-5.6 8.2-8.5 12.1z" fill="#323332" /><path d="M762.4 323.4c-2.8 4.7-5.6 9.4-8.6 14.2-33.8-35.8-76.3-63.7-124.4-80.3 0.1-0.1 0.2-0.2 0.4-0.3 4.2-4.1 8.4-8.2 12.5-12.2 46.1 17.3 87 44.4 120.1 78.6z" fill="#8A278E" /><path d="M495 240.8c-1 0.1-2.1 0.2-3.2 0.3-1.1 0.1-2.2 0.2-3.4 0.3-0.7 0-1.5 0.1-2.2 0.2 2.9-0.3 5.9-0.6 8.8-0.8zM804.7 674.6c2.6-5.2 5-10.4 7.3-15.8-2.2 5.4-4.6 10.7-7.3 15.8zM513.6 846.4c2.7 0.1 5.5 0.1 8.2 0.1-3 0-6 0-9-0.1 0.3 0.1 0.5 0.1 0.8 0zM513.7 239.8c-2.7 0-5.3 0.1-8 0.3 2.4-0.1 4.8-0.2 7.1-0.3h0.9zM428.4 253.3c4.9-1.5 9.9-2.9 14.9-4.1-5 1.3-10 2.7-14.9 4.1zM835.5 530.9c0-1.8-0.1-3.5-0.3-5.3 0.1 1.7 0.2 3.5 0.3 5.3z" fill="#323332" /><path d="M747.3 354.6c6.8 7.6 13.2 15.6 19.1 23.8-22.6 35.7-47.8 73.1-75.2 111-2.6-13.9-6.1-27.5-10.6-40.6 24-34.2 45.5-66.6 64.3-96.9 0.9 0.9 1.6 1.8 2.4 2.7z" fill="#8A278E" /><path d="M654.7 392.4c-7.6 4.4-16.8 6.7-26.5 5.8-21.1-1.8-38.2-18.3-39.6-39.4-0.8-12.8 4.2-24.5 12.9-32.8 20.7 19.6 38.7 41.9 53.2 66.4zM147.5 363.9c-5.1 1.7-10.6 2.4-16.1 2.2-22.4-0.9-40.1-17.7-41.2-39.1-0.5-8.5 1.8-16.8 6.4-23.8 15.4 20.5 33.2 41.4 50.9 60.7z" fill="#C1D2DB" /><path d="M628.9 257.8c-6.4 5.5-16 5.1-22-1-2-2-3.4-4.4-4.1-6.9 8.9 2.3 17.6 4.9 26.1 7.9z" fill="#8A278E" /><path d="M508.2 668.4c-37.6 43.1-74.9 83-110.7 118.3-76.9-55.3-126.8-143.8-126.8-243.6 0-19 1.8-37.6 5.3-55.7 49.4 43.2 104.3 87.4 161.8 130.2 23.5 17.6 47 34.5 70.4 50.8z m-122.6 9.2c18.5 2.2 34-12.6 32.2-30.4-1.3-13-12-23.2-24.9-24.7-18.5-2.2-34 12.6-32.2 30.4 1.4 13 12 23.2 24.9 24.7z" fill="#E1F3FC" /><path d="M172.2 343.1c3.7 4 7.5 8.1 11.5 12.3-5.9 9-14.4 16.4-24.4 21.1-3.9-4.1-7.8-8.4-11.8-12.6 6.5-2.1 12.5-5.8 17.4-10.7 3-3.1 5.5-6.4 7.3-10.1zM104 257.1c2.7 4.4 5.7 8.9 9.1 13.8-10.5 3.7-19.6 10.2-26.4 18.5-3.3-4.7-6.3-9.4-9.2-14 0.5-0.5 1-1.1 1.6-1.6 7.1-7.2 15.6-12.9 24.9-16.7z" fill="#8A278E" /><path d="M730.6 769.6c0.1 0 0.1 0 0 0-8.6 7.5-17.7 14.5-27.1 21 9.4-6.6 18.5-13.6 27.1-21z" fill="#323332" /><path d="M224.6 561.8c3.2 48.8 19 94.6 44.4 134l-2.3 1.5c-1.2-1.7-2.8-3.2-4.7-4.3-4.3-2.6-9.4-2.9-13.9-1.3-15.7-26.9-27.3-56.3-33.9-87.5-0.5-2.5-1-5-1.5-7.4-0.4-1.9-0.7-3.9-1-5.9-0.1-0.9-0.3-1.8-0.4-2.6l-1.5-10.8c0-0.6-0.1-1.2-0.2-1.8-0.2-2-0.4-4.1-0.6-6.2v-0.4c-0.2-2-0.3-4.1-0.5-6.2-0.2-3.3-0.4-6.6-0.5-9.9-1.3-39 5.1-76.4 17.7-110.9 4.2 3.9 8.6 7.9 12.9 11.9-11.6 34.2-16.5 70.6-14 107.8zM784.6 348.9c-2.9 4.9-5.9 9.8-9 14.7-6.8-9.1-14.1-17.7-21.8-25.9 3-4.8 5.8-9.6 8.6-14.2 7.9 8 15.3 16.5 22.2 25.4zM687 782.2c5.3 3 10.6 6 15.8 8.8-5.9 4-12 7.9-18.2 11.6-8.7 5.1-17.6 9.7-26.7 14-4.6 2.1-9.2 4.1-13.9 6.1-14.1 5.7-28.7 10.5-43.7 14.3-7.5 1.8-15.1 3.5-22.9 4.8-7.9 1.4-15.9 2.4-24.1 3.2-24.2-2.3-47.6-7.3-69.9-14.6 1.7-0.6 3.4-1.1 5-1.7 71 7.4 140.6-9 198.6-46.5z" fill="#8A278E" /><path d="M267.4 715.2c3.5-5.8 2.9-12.8-0.8-17.9l2.3-1.5c28.2 43.7 68.1 79.6 115.8 103.3-4 3.8-7.9 7.6-11.8 11.3-42.7-22.3-79.5-53.8-107.4-91.9 0.6-1.1 1.3-2.2 1.9-3.3zM715.6 761.2c-9.1 7.6-18.7 14.6-28.5 21-21.9-12.4-44.5-26-67.7-40.4 7.2-8 14.1-16.5 20.4-25.3 26 16.2 51.4 31.2 75.8 44.7z" fill="#8A278E" /><path d="M775.6 363.6c31.9 42.4 52.8 93.3 58.5 148.5-5.8-55-26.8-105.7-58.8-147.9l0.3-0.6zM505.4 846.1c2.5 0.1 4.9 0.2 7.4 0.3-2.9 0-5.7-0.1-8.5-0.3h1.1z" fill="#323332" /><path d="M336.1 298.4c-0.8 0.5-1.5 1-2.2 1.6-6 4.4-11.9 8.9-17.6 13.7-5.7 4.8-11.2 9.7-16.5 14.9-1.8 1.7-3.5 3.4-5.3 5.2-17.4 17.6-32.5 37.1-45.1 58.3-3.6 6-7 12.2-10.2 18.5-4.1-3.9-8.2-7.8-12.2-11.7 18-34.5 42.6-65.9 73.1-92.7 6.7-5.9 13.6-11.4 20.7-16.7 5 2.9 10.1 5.9 15.3 8.9z" fill="#8A278E" /><path d="M225.7 442c-12.6 34.5-19 71.9-17.7 110.9-0.1-3.3-0.2-6.5-0.2-9.8 0-35.4 6.3-69.5 17.9-101.1z" fill="#323332" /><path d="M417.9 647.3c1.8 17.8-13.8 32.6-32.2 30.4-13-1.6-23.6-11.7-24.9-24.7-1.8-17.8 13.8-32.6 32.2-30.4 12.9 1.5 23.6 11.6 24.9 24.7z" fill="#C1D2DB" /><path d="M529.4 643.8c-7.1 8.3-14.1 16.5-21.2 24.6-23.3-16.3-46.8-33.3-70.4-50.8-57.5-42.8-112.4-87-161.8-130.2 2.2-11.9 5.3-23.5 8.9-34.9C334 496 391.5 542.9 457 591.7c24.3 18 48.4 35.4 72.4 52.1z" fill="#8A278E" /><path d="M644 822.7c-14.1 5.8-28.7 10.6-43.7 14.3 15-3.8 29.6-8.6 43.7-14.3zM684.5 802.6c6.2-3.7 12.3-7.5 18.2-11.6-5.8 4.1-11.9 8-18.2 11.6z" fill="#323332" /><path d="M680.7 448.8c4.4 13.1 8 26.7 10.6 40.6-25.3 35.2-52.4 71-80.6 106.4-18.1 22.7-36.3 44.8-54.6 66.3-8.8-6-17.8-12.2-26.7-18.4 18.7-22 37.4-44.7 56-68.1 35.3-44.2 67.1-86.6 95.3-126.8z" fill="#8A278E" /><path d="M696.2 543.1c0 64.5-20.9 124.4-56.4 173.5-3.7-2.3-7.4-4.6-11.2-7 8.9-5.9 14.6-16.1 13.7-27.6-1.2-14.7-13.2-26.3-28-27.8-16.6-1.7-31 9.2-34.2 24.1-7.9-5.3-15.9-10.6-24-16.1 18.2-21.5 36.5-43.6 54.6-66.3 28.2-35.4 55.3-71.2 80.6-106.4 3.2 17.3 4.9 35.3 4.9 53.6z" fill="#E1F3FC" /><path d="M209 569.5z" fill="#323332" /><path d="M715.6 761.2c5.1 2.9 10.1 5.6 15.1 8.4-8.7 7.4-17.7 14.4-27.1 21-0.2 0.2-0.5 0.3-0.7 0.5-5.2-2.8-10.5-5.8-15.8-8.8 9.8-6.5 19.3-13.5 28.5-21.1zM359.9 822.6c10.1 5.5 20.6 10.5 31.4 14.9-15.9 14.9-31.5 28.9-46.5 41.7-39.8 33.9-74.3 58.4-102.6 72.8-20 10.2-36.8 15.3-50.7 15.3-10.1 0-18.7-2.7-25.9-8-20.9-15.6-22.7-48.1-5.4-99.4 13.8-41.1 40-94.7 76.1-155.3 6.1 10.3 12.8 20.1 20.1 29.6-83.3 143.2-79.8 193-71.5 199.2 4.3 3.2 18 2.5 42.7-10.1 25.7-13.1 58.9-36.8 96.3-68.6 11.7-10.1 23.7-20.8 36-32.1zM261.9 693.1c1.9 1.1 3.5 2.6 4.7 4.3 3.7 5.1 4.3 12.1 0.8 17.9-0.6 1.1-1.3 2.2-1.9 3.3-6.3-8.6-12.2-17.5-17.5-26.7 4.5-1.8 9.6-1.5 13.9 1.2z" fill="#8A278E" /><path d="M496.9 240.7c-1.7 0.1-3.4 0.3-5 0.4 1.1-0.1 2.1-0.2 3.2-0.3 0.6 0 1.2-0.1 1.8-0.1zM360.5 282.8l-1.5 0.9c0.4-0.4 0.9-0.6 1.5-0.9z" fill="#323332" /><path d="M745 352c-41-45-96.5-77.3-160-89.9-21.1-4.2-42.3-6.2-63.3-6.2-11.2 0-22.3 0.6-33.2 1.8-1.8-0.6-3.5-1.2-5.3-1.8 22.3-7.3 45.6-12.3 69.8-14.7 3.3 0.3 6.6 0.7 9.9 1.1 13.6 1.8 26.8 4.3 39.8 7.7 0.7 2.5 2.1 4.9 4.1 6.9 6 6.1 15.6 6.5 22 1 48.1 16.9 90.7 44.7 124.5 80.5-2.6 4.4-5.4 9-8.3 13.6z" fill="#8A278E" /><path d="M265.5 718.5c28 38.1 64.7 69.6 107.4 91.9l-0.5 0.5c-42.7-22.1-79.4-53.6-107.3-91.8 0.2-0.2 0.3-0.4 0.4-0.6zM209.8 577.5zM346.2 291.5c-2 1.4-4.1 2.8-6.2 4.2 2.1-1.5 4.1-2.8 6.2-4.2zM835.6 534.5c0-1.2 0-2.4-0.1-3.6 0 1.2 0.1 2.4 0.1 3.6z" fill="#323332" /><path d="M835.5 636.8l1.5 1.5c-3.5 11.2-7.8 22.2-12.7 33-3.7-3.7-7.5-7.6-11.5-11.5l-0.8-0.8c1.7-3.8 3.2-7.6 4.6-11.4 1.9-5 3.6-10 5.3-15.1 4.8-0.9 9.9 0.6 13.6 4.3zM579.5 686.9c1.2 14.7 13.3 26.3 28 27.8 7.9 0.8 15.2-1.2 21.1-5.1 3.7 2.4 7.5 4.7 11.2 7-6.3 8.8-13.2 17.3-20.4 25.3-27.6-17.1-55.8-35.5-84.5-55 7.1-8.1 14.1-16.3 21.2-24.7 8 5.4 16 10.8 24 16.1-0.6 2.8-0.8 5.7-0.6 8.6z" fill="#8A278E" /><path d="M477.6 242.7l-8.4 1.2c2.7-0.4 5.6-0.8 8.4-1.2zM232.5 425c-2.4 5.6-4.7 11.3-6.8 17 2-5.7 4.3-11.4 6.8-17z" fill="#323332" /><path d="M389.3 690c-1.7 0-3.4-0.1-5.1-0.3-18.7-2.2-33.7-17.2-35.6-35.6-1.2-12 3-23.7 11.7-32.2 9-8.8 21.4-13 34.1-11.5 18.8 2.2 33.8 17.2 35.6 35.6 1.2 12-3.1 23.7-11.7 32.2-7.8 7.7-18.1 11.8-29 11.8z m0-55.5c-4.5 0-8.8 1.7-12 4.8-3.4 3.3-5 7.7-4.5 12.4 0.7 7.1 6.8 13 14.3 13.9 5.3 0.6 10.5-1.1 14.2-4.7 3.4-3.3 5-7.7 4.5-12.4-0.7-7.2-6.7-13-14.3-13.9-0.7-0.1-1.5-0.1-2.2-0.1zM610.9 727c-1.5 0-3.1-0.1-4.6-0.2-20.9-2.1-37.2-18.5-38.9-38.9-0.3-4.1-0.1-8.2 0.8-12.2v-0.1c4.6-21.4 25-35.8 47.3-33.6 20.9 2.1 37.2 18.5 38.8 38.9 1.2 15.3-6.1 30.2-19.1 38.7-7.3 4.9-15.6 7.4-24.3 7.4z m-19-46.2c-0.3 1.7-0.4 3.4-0.3 5.1 0.7 8.7 7.9 15.7 17.1 16.7 4.7 0.5 9.3-0.6 13.2-3.2 5.7-3.7 8.7-9.9 8.2-16.5-0.7-8.7-7.9-15.7-17.1-16.6-10-1.1-19 5.2-21.1 14.5zM632.3 410.5c-1.8 0-3.5-0.1-5.3-0.2-27.1-2.4-48.9-24.2-50.7-50.7-1-15.9 5-31.3 16.6-42.4 12.3-11.8 29.3-17.4 46.6-15.2 25.7 3.2 45.5 23 48.2 48.1 2.3 21.2-8.3 41.9-27 52.8-8.6 5-18.3 7.6-28.4 7.6z m0-84.6c-8.5 0-16.4 3.1-22.4 8.9-6.5 6.2-9.7 14.4-9.1 23.2 1 14.6 13.3 26.7 28.6 28.1 6.9 0.6 13.6-0.8 19.4-4.2 10.6-6.1 16.4-17.3 15.1-29.1-1.5-13.7-12.9-24.8-27.1-26.6-1.7-0.2-3.1-0.3-4.5-0.3z" fill="#8A278E" /></svg>